<?xml version="1.0" encoding="UTF-8"?>
<svg width="1200pt" height="1200pt" version="1.1" viewBox="0 0 1200 1200" xmlns="http://www.w3.org/2000/svg">
 <g>
  <path d="m603.98 270.13c-19.066-12.926-45.191-10.992-62.074 5.9023l-154.82 154.81h-249.34c-42.934 0-77.746 34.812-77.746 77.762v182.79c0 42.926 34.812 77.746 77.746 77.746h249.32l154.82 154.82c16.883 16.883 43.008 18.805 62.074 5.9023z"/>
  <path d="m760.01 604.01c0 78.406-39.012 147.61-98.566 189.6l42.781 42.793c70.246-53.363 115.77-137.59 115.77-232.39 0-94.812-45.539-179.04-115.77-232.4l-42.781 42.793c59.555 41.98 98.566 111.19 98.566 189.61z"/>
  <path d="m916.01 604.01c0 120.56-60.996 227.04-153.68 290.48l43.031 43.043c103.29-74.914 170.65-196.45 170.65-333.53 0-137.07-67.355-258.62-170.65-333.53l-43.031 43.031c92.688 63.445 153.68 169.93 153.68 290.5z"/>
 </g>
</svg>
