<?xml version="1.0" encoding="UTF-8"?>
<svg width="1200pt" height="1200pt" version="1.1" viewBox="0 0 1200 1200" xmlns="http://www.w3.org/2000/svg">
 <path d="m642.48 600 300.72-300.84c6.8789-7.6953 9.3203-18.383 6.4609-28.297-2.8555-9.918-10.605-17.668-20.523-20.523-9.9141-2.8594-20.602-0.41797-28.297 6.4609l-300.84 300.72-300.84-300.72c-7.6953-6.8789-18.383-9.3203-28.297-6.4609-9.918 2.8555-17.668 10.605-20.523 20.523-2.8594 9.9141-0.41797 20.602 6.4609 28.297l300.72 300.84-300.72 300.84c-5.5859 5.6328-8.7109 13.254-8.6953 21.188 0.019531 7.9336 3.1758 15.535 8.7891 21.145 5.6094 5.6094 13.211 8.7695 21.145 8.7891 7.9336 0.046874 15.551-3.1094 21.121-8.7617l300.84-300.72 300.84 300.72c5.5703 5.6523 13.188 8.8086 21.121 8.7617 7.9336-0.019532 15.535-3.1797 21.145-8.7891 5.6133-5.6094 8.7695-13.211 8.7891-21.145 0.015625-7.9336-3.1094-15.555-8.6953-21.188z"/>
</svg>
