<?xml version="1.0" encoding="UTF-8"?>
<svg width="1200pt" height="1200pt" version="1.1" viewBox="0 0 1200 1200" xmlns="http://www.w3.org/2000/svg">
 <g>
  <path d="m794.28 216h-388.55c-50.301 0.054688-98.531 20.062-134.1 55.629-35.566 35.57-55.574 83.801-55.629 134.1v388.54c0.054688 50.301 20.062 98.531 55.629 134.1 35.57 35.566 83.801 55.574 134.1 55.629h388.55c50.301-0.054688 98.527-20.062 134.09-55.633 35.57-35.57 55.574-83.797 55.625-134.1v-388.54c-0.050781-50.301-20.055-98.527-55.625-134.1-35.566-35.57-83.793-55.578-134.09-55.633zm116.82 578.27c-0.035156 30.973-12.355 60.668-34.254 82.574-21.898 21.902-51.594 34.227-82.566 34.27h-388.55c-30.977-0.039062-60.672-12.363-82.574-34.266-21.902-21.906-34.223-51.602-34.258-82.578v-388.54c0.035156-30.977 12.355-60.672 34.258-82.578 21.902-21.902 51.598-34.227 82.574-34.266h388.55c30.973 0.042969 60.668 12.367 82.566 34.27 21.898 21.906 34.219 51.602 34.254 82.574z"/>
  <path d="m600 417.12c-48.504 0.003906-95.016 19.273-129.31 53.57-34.293 34.297-53.559 80.816-53.555 129.32 0 48.504 19.27 95.016 53.566 129.31 34.297 34.293 80.816 53.562 129.32 53.559 48.504 0 95.02-19.27 129.31-53.566 34.297-34.293 53.562-80.809 53.562-129.31-0.050781-48.488-19.34-94.977-53.625-129.26-34.289-34.285-80.777-53.566-129.27-53.617zm0 292.87c-29.172-0.003907-57.145-11.594-77.77-32.223-20.625-20.629-32.211-48.605-32.211-77.777 0.003907-29.172 11.594-57.148 32.219-77.773 20.629-20.625 48.605-32.211 77.777-32.211s57.148 11.59 77.773 32.219c20.629 20.625 32.215 48.602 32.215 77.773-0.027344 29.164-11.629 57.129-32.25 77.75-20.625 20.621-48.59 32.215-77.754 32.242z"/>
  <path d="m790.38 360.82c-12.945-0.003906-25.363 5.1367-34.523 14.289-9.1562 9.1562-14.301 21.57-14.305 34.52 0 12.945 5.1406 25.363 14.293 34.52 9.1562 9.1562 21.574 14.301 34.52 14.305 12.949 0 25.367-5.1445 34.52-14.297 9.1562-9.1562 14.301-21.574 14.301-34.52 0-12.945-5.1406-25.359-14.293-34.516-9.1523-9.1523-21.566-14.297-34.512-14.301z"/>
 </g>
</svg>
