<?xml version="1.0" encoding="UTF-8"?>
<svg width="2400pt" height="2400pt" version="1.1" viewBox="0 0 1200 1200" xmlns="http://www.w3.org/2000/svg">
 <path d="m624.2 541.85v202.04h-213.25c-90.988 0-165.44 74.449-165.44 165.44v43.273h487.21c78.77 0 143.21-64.445 143.21-143.21v-267.54c0-37.82-13.363-66.906-33.91-87.305l28.492-73.539c5.1953 1.2656 10.613 1.9453 16.199 1.9453 37.426 0 67.773-30.34 67.773-67.773 0-37.434-30.348-67.773-67.773-67.773-37.434 0-67.781 30.34-67.781 67.773 0 21.207 9.7461 40.141 25 52.562l-26.438 68.211c-42.141-23.965-98.586-23.012-139.6 2.8555l-27.535-71.066c15.246-12.426 24.992-31.355 24.992-52.562 0-37.434-30.348-67.773-67.773-67.773-37.434 0-67.781 30.34-67.781 67.773 0 37.434 30.348 67.773 67.781 67.773 5.5781 0 11.004-0.67969 16.191-1.9453l30.168 77.859c-18.172 20.117-29.742 47.781-29.742 82.984zm-3.9805-251.68c14.406 0 26.09 11.676 26.09 26.09 0 14.406-11.684 26.09-26.09 26.09s-26.09-11.684-26.09-26.09c0-14.414 11.684-26.09 26.09-26.09zm253.85 0c-14.406 0-26.09 11.676-26.09 26.09 0 14.406 11.684 26.09 26.09 26.09 14.414 0 26.09-11.684 26.09-26.09 0-14.414-11.676-26.09-26.09-26.09zm-59.367 247.14v41.566c0 22.379 33.836 22.387 33.836 0v-41.566c0-22.379-33.836-22.379-33.836 0zm0 101.23v183.48c0 22.379 33.836 22.379 33.836 0v-183.48c0-22.379-33.836-22.379-33.836 0z" fill-rule="evenodd"/>
 <!-- Adjusted text element position to bottom left -->
 <text x="300" y="850" dominant-baseline="middle" text-anchor="start" font-family="Arial" font-size="48" fill="#000000">Click Me</text>
</svg>
