<svg xmlns="http://www.w3.org/2000/svg"
     xmlns:xlink="http://www.w3.org/1999/xlink"
     width="100%" height="auto"
     viewBox="0 0 810 809.999993"
     preserveAspectRatio="xMidYMid meet"
     version="1.0"><defs><g/></defs><path fill="#ffea00" d="M 418.066406 373.597656 L 418.066406 482.699219 L 302.914062 482.699219 C 253.78125 482.699219 213.574219 522.902344 213.574219 572.039062 L 213.574219 595.40625 L 476.667969 595.40625 C 519.203125 595.40625 554.003906 560.605469 554.003906 518.070312 L 554.003906 373.601562 C 554.003906 353.179688 546.785156 337.472656 535.691406 326.457031 L 551.078125 286.746094 C 553.882812 287.429688 556.808594 287.796875 559.824219 287.796875 C 580.035156 287.796875 596.421875 271.410156 596.421875 251.199219 C 596.421875 230.984375 580.035156 214.601562 559.824219 214.601562 C 539.609375 214.601562 523.222656 230.984375 523.222656 251.199219 C 523.222656 262.648438 528.484375 272.875 536.722656 279.582031 L 522.445312 316.414062 C 499.691406 303.472656 469.210938 303.988281 447.0625 317.957031 L 432.191406 279.582031 C 440.425781 272.871094 445.6875 262.648438 445.6875 251.199219 C 445.6875 230.984375 429.300781 214.601562 409.089844 214.601562 C 388.875 214.601562 372.488281 230.984375 372.488281 251.199219 C 372.488281 271.414062 388.878906 287.796875 409.089844 287.796875 C 412.101562 287.796875 415.03125 287.429688 417.835938 286.746094 L 434.125 328.789062 C 424.3125 339.652344 418.0625 354.589844 418.0625 373.601562 Z M 415.917969 237.691406 C 423.699219 237.691406 430.007812 243.996094 430.007812 251.78125 C 430.007812 259.558594 423.699219 265.867188 415.917969 265.867188 C 408.140625 265.867188 401.828125 259.558594 401.828125 251.78125 C 401.828125 243.996094 408.140625 237.691406 415.917969 237.691406 Z M 552.996094 237.691406 C 545.21875 237.691406 538.910156 243.996094 538.910156 251.78125 C 538.910156 259.558594 545.21875 265.867188 552.996094 265.867188 C 560.78125 265.867188 567.085938 259.558594 567.085938 251.78125 C 567.085938 243.996094 560.78125 237.691406 552.996094 237.691406 Z M 520.9375 371.148438 L 520.9375 393.59375 C 520.9375 405.675781 539.210938 405.683594 539.210938 393.59375 L 539.210938 371.148438 C 539.210938 359.0625 520.9375 359.0625 520.9375 371.148438 Z M 520.9375 425.8125 L 520.9375 524.890625 C 520.9375 536.976562 539.210938 536.976562 539.210938 524.890625 L 539.210938 425.8125 C 539.210938 413.726562 520.9375 413.726562 520.9375 425.8125 Z M 520.9375 425.8125 " fill-opacity="1" fill-rule="evenodd"/><g fill="#ffea00" fill-opacity="1"><g transform="translate(242.999991, 546.843742)"><g><path d="M 10.03125 -16.125 C 8.050781 -16.125 6.507812 -15.488281 5.40625 -14.21875 C 4.3125 -12.945312 3.765625 -11.207031 3.765625 -9 C 3.765625 -6.8125 4.335938 -5.050781 5.484375 -3.71875 C 6.628906 -2.394531 8.175781 -1.734375 10.125 -1.734375 C 12.625 -1.734375 14.503906 -2.96875 15.765625 -5.4375 L 17.734375 -4.453125 C 16.992188 -2.921875 15.957031 -1.753906 14.625 -0.953125 C 13.300781 -0.148438 11.765625 0.25 10.015625 0.25 C 8.210938 0.25 6.65625 -0.117188 5.34375 -0.859375 C 4.03125 -1.609375 3.03125 -2.675781 2.34375 -4.0625 C 1.65625 -5.457031 1.3125 -7.101562 1.3125 -9 C 1.3125 -11.84375 2.078125 -14.066406 3.609375 -15.671875 C 5.148438 -17.285156 7.28125 -18.09375 10 -18.09375 C 11.894531 -18.09375 13.476562 -17.722656 14.75 -16.984375 C 16.03125 -16.242188 16.96875 -15.144531 17.5625 -13.6875 L 15.28125 -12.921875 C 14.863281 -13.960938 14.195312 -14.753906 13.28125 -15.296875 C 12.363281 -15.847656 11.28125 -16.125 10.03125 -16.125 Z M 10.03125 -16.125 "/></g></g></g><g fill="#ffea00" fill-opacity="1"><g transform="translate(261.711481, 546.843742)"><g><path d="M 1.75 0 L 1.75 -18.78125 L 4.03125 -18.78125 L 4.03125 0 Z M 1.75 0 "/></g></g></g><g fill="#ffea00" fill-opacity="1"><g transform="translate(267.467893, 546.843742)"><g><path d="M 1.734375 -16.609375 L 1.734375 -18.78125 L 4.015625 -18.78125 L 4.015625 -16.609375 Z M 1.734375 0 L 1.734375 -13.6875 L 4.015625 -13.6875 L 4.015625 0 Z M 1.734375 0 "/></g></g></g><g fill="#ffea00" fill-opacity="1"><g transform="translate(273.224305, 546.843742)"><g><path d="M 3.484375 -6.90625 C 3.484375 -5.082031 3.769531 -3.734375 4.34375 -2.859375 C 4.914062 -1.984375 5.78125 -1.546875 6.9375 -1.546875 C 7.75 -1.546875 8.425781 -1.765625 8.96875 -2.203125 C 9.507812 -2.640625 9.84375 -3.316406 9.96875 -4.234375 L 12.28125 -4.078125 C 12.101562 -2.753906 11.539062 -1.703125 10.59375 -0.921875 C 9.644531 -0.140625 8.445312 0.25 7 0.25 C 5.082031 0.25 3.617188 -0.351562 2.609375 -1.5625 C 1.597656 -2.769531 1.09375 -4.535156 1.09375 -6.859375 C 1.09375 -9.160156 1.597656 -10.914062 2.609375 -12.125 C 3.628906 -13.34375 5.082031 -13.953125 6.96875 -13.953125 C 8.375 -13.953125 9.535156 -13.585938 10.453125 -12.859375 C 11.378906 -12.128906 11.960938 -11.128906 12.203125 -9.859375 L 9.859375 -9.6875 C 9.742188 -10.445312 9.441406 -11.046875 8.953125 -11.484375 C 8.472656 -11.929688 7.789062 -12.15625 6.90625 -12.15625 C 5.695312 -12.15625 4.820312 -11.753906 4.28125 -10.953125 C 3.75 -10.160156 3.484375 -8.8125 3.484375 -6.90625 Z M 3.484375 -6.90625 "/></g></g></g><g fill="#ffea00" fill-opacity="1"><g transform="translate(286.179383, 546.843742)"><g><path d="M 10.328125 0 L 5.703125 -6.25 L 4.03125 -4.875 L 4.03125 0 L 1.75 0 L 1.75 -18.78125 L 4.03125 -18.78125 L 4.03125 -7.046875 L 10.03125 -13.6875 L 12.703125 -13.6875 L 7.15625 -7.8125 L 13 0 Z M 10.328125 0 "/></g></g></g><g fill="#ffea00" fill-opacity="1"><g transform="translate(299.134461, 546.843742)"><g/></g></g><g fill="#ffea00" fill-opacity="1"><g transform="translate(306.333138, 546.843742)"><g><path d="M 17.296875 0 L 17.296875 -11.890625 C 17.296875 -13.210938 17.332031 -14.476562 17.40625 -15.6875 C 16.988281 -14.175781 16.617188 -13 16.296875 -12.15625 L 11.6875 0 L 9.984375 0 L 5.3125 -12.15625 L 4.609375 -14.296875 L 4.1875 -15.6875 L 4.234375 -14.296875 L 4.28125 -11.890625 L 4.28125 0 L 2.125 0 L 2.125 -17.828125 L 5.296875 -17.828125 L 10.046875 -5.46875 C 10.210938 -4.96875 10.375 -4.429688 10.53125 -3.859375 C 10.6875 -3.296875 10.789062 -2.882812 10.84375 -2.625 C 10.914062 -2.96875 11.054688 -3.484375 11.265625 -4.171875 C 11.484375 -4.859375 11.628906 -5.289062 11.703125 -5.46875 L 16.359375 -17.828125 L 19.46875 -17.828125 L 19.46875 0 Z M 17.296875 0 "/></g></g></g><g fill="#ffea00" fill-opacity="1"><g transform="translate(327.916499, 546.843742)"><g><path d="M 3.5 -6.359375 C 3.5 -4.796875 3.820312 -3.585938 4.46875 -2.734375 C 5.113281 -1.878906 6.0625 -1.453125 7.3125 -1.453125 C 8.300781 -1.453125 9.09375 -1.648438 9.6875 -2.046875 C 10.28125 -2.441406 10.679688 -2.945312 10.890625 -3.5625 L 12.890625 -2.984375 C 12.078125 -0.828125 10.21875 0.25 7.3125 0.25 C 5.289062 0.25 3.75 -0.347656 2.6875 -1.546875 C 1.625 -2.753906 1.09375 -4.550781 1.09375 -6.9375 C 1.09375 -9.195312 1.625 -10.929688 2.6875 -12.140625 C 3.75 -13.347656 5.265625 -13.953125 7.234375 -13.953125 C 11.253906 -13.953125 13.265625 -11.523438 13.265625 -6.671875 L 13.265625 -6.359375 Z M 10.90625 -8.109375 C 10.78125 -9.554688 10.410156 -10.609375 9.796875 -11.265625 C 9.191406 -11.929688 8.320312 -12.265625 7.1875 -12.265625 C 6.082031 -12.265625 5.207031 -11.894531 4.5625 -11.15625 C 3.914062 -10.414062 3.566406 -9.398438 3.515625 -8.109375 Z M 10.90625 -8.109375 "/></g></g></g><g fill="#000000" fill-opacity="1"><g transform="translate(261.105592, 529.882601)"><g><path d="M 13.90625 -15.96875 C 14.226562 -15.96875 14.460938 -15.945312 14.609375 -15.90625 C 14.765625 -15.863281 14.867188 -15.785156 14.921875 -15.671875 C 14.972656 -15.566406 15 -15.390625 15 -15.140625 L 15 0.015625 C 14.820312 0.0664062 14.570312 0.09375 14.25 0.09375 C 13.925781 0.09375 13.6875 0.0664062 13.53125 0.015625 C 13.382812 -0.0234375 13.285156 -0.0976562 13.234375 -0.203125 C 13.179688 -0.316406 13.15625 -0.5 13.15625 -0.75 L 13.15625 -7.390625 L 3.609375 -7.390625 L 3.609375 0.015625 C 3.429688 0.0664062 3.179688 0.09375 2.859375 0.09375 C 2.535156 0.09375 2.296875 0.0664062 2.140625 0.015625 C 1.984375 -0.0234375 1.878906 -0.0976562 1.828125 -0.203125 C 1.785156 -0.316406 1.765625 -0.5 1.765625 -0.75 L 1.765625 -15.90625 C 1.941406 -15.945312 2.191406 -15.96875 2.515625 -15.96875 C 2.828125 -15.96875 3.0625 -15.945312 3.21875 -15.90625 C 3.375 -15.863281 3.476562 -15.785156 3.53125 -15.671875 C 3.582031 -15.566406 3.609375 -15.390625 3.609375 -15.140625 L 3.609375 -9.0625 L 13.15625 -9.0625 L 13.15625 -15.90625 C 13.332031 -15.945312 13.582031 -15.96875 13.90625 -15.96875 Z M 13.90625 -15.96875 "/></g></g></g><g fill="#000000" fill-opacity="1"><g transform="translate(277.866607, 529.882601)"><g><path d="M 6.75 0.359375 C 5.59375 0.359375 4.59375 0.125 3.75 -0.34375 C 2.90625 -0.820312 2.25 -1.515625 1.78125 -2.421875 C 1.320312 -3.328125 1.09375 -4.410156 1.09375 -5.671875 C 1.09375 -6.910156 1.328125 -7.972656 1.796875 -8.859375 C 2.273438 -9.753906 2.929688 -10.441406 3.765625 -10.921875 C 4.609375 -11.398438 5.582031 -11.640625 6.6875 -11.640625 C 7.84375 -11.640625 8.84375 -11.40625 9.6875 -10.9375 C 10.53125 -10.46875 11.179688 -9.773438 11.640625 -8.859375 C 12.109375 -7.953125 12.34375 -6.867188 12.34375 -5.609375 C 12.34375 -4.378906 12.109375 -3.316406 11.640625 -2.421875 C 11.171875 -1.523438 10.515625 -0.835938 9.671875 -0.359375 C 8.828125 0.117188 7.851562 0.359375 6.75 0.359375 Z M 6.75 -1.25 C 7.5 -1.25 8.15625 -1.40625 8.71875 -1.71875 C 9.28125 -2.039062 9.71875 -2.523438 10.03125 -3.171875 C 10.351562 -3.828125 10.515625 -4.640625 10.515625 -5.609375 C 10.515625 -6.585938 10.351562 -7.40625 10.03125 -8.0625 C 9.707031 -8.726562 9.257812 -9.222656 8.6875 -9.546875 C 8.113281 -9.867188 7.445312 -10.03125 6.6875 -10.03125 C 5.9375 -10.03125 5.28125 -9.875 4.71875 -9.5625 C 4.15625 -9.25 3.710938 -8.765625 3.390625 -8.109375 C 3.078125 -7.453125 2.921875 -6.640625 2.921875 -5.671875 C 2.921875 -4.691406 3.082031 -3.867188 3.40625 -3.203125 C 3.726562 -2.546875 4.175781 -2.054688 4.75 -1.734375 C 5.320312 -1.410156 5.988281 -1.25 6.75 -1.25 Z M 6.75 -1.25 "/></g></g></g><g fill="#000000" fill-opacity="1"><g transform="translate(291.306216, 529.882601)"><g><path d="M 17.421875 -10.609375 C 17.554688 -10.253906 17.675781 -9.734375 17.78125 -9.046875 C 17.894531 -8.367188 17.953125 -7.566406 17.953125 -6.640625 C 17.953125 -4.453125 17.492188 -2.738281 16.578125 -1.5 C 15.660156 -0.257812 14.265625 0.359375 12.390625 0.359375 C 11.785156 0.359375 11.1875 0.265625 10.59375 0.078125 C 10.007812 -0.109375 9.5 -0.363281 9.0625 -0.6875 C 8.164062 0.0078125 7.019531 0.359375 5.625 0.359375 C 5.1875 0.359375 4.710938 0.285156 4.203125 0.140625 C 3.691406 0.00390625 3.285156 -0.148438 2.984375 -0.328125 C 2.753906 -0.460938 2.578125 -0.585938 2.453125 -0.703125 C 2.335938 -0.816406 2.257812 -0.945312 2.21875 -1.09375 C 2.175781 -1.238281 2.15625 -1.445312 2.15625 -1.71875 L 2.15625 -8.796875 C 2.15625 -9.222656 2.082031 -9.523438 1.9375 -9.703125 C 1.789062 -9.878906 1.554688 -9.96875 1.234375 -9.96875 C 0.878906 -9.96875 0.585938 -9.910156 0.359375 -9.796875 C 0.265625 -9.992188 0.21875 -10.210938 0.21875 -10.453125 C 0.21875 -10.828125 0.382812 -11.097656 0.71875 -11.265625 C 1 -11.398438 1.351562 -11.46875 1.78125 -11.46875 C 2.507812 -11.46875 3.054688 -11.269531 3.421875 -10.875 C 3.796875 -10.476562 3.984375 -9.804688 3.984375 -8.859375 L 3.984375 -1.6875 C 4.523438 -1.394531 5.097656 -1.25 5.703125 -1.25 C 8.148438 -1.25 9.375 -3.023438 9.375 -6.578125 C 9.375 -7.609375 9.304688 -8.492188 9.171875 -9.234375 C 9.035156 -9.972656 8.867188 -10.648438 8.671875 -11.265625 C 8.847656 -11.328125 9.070312 -11.359375 9.34375 -11.359375 C 9.71875 -11.359375 10.007812 -11.300781 10.21875 -11.1875 C 10.425781 -11.070312 10.582031 -10.878906 10.6875 -10.609375 C 10.820312 -10.265625 10.941406 -9.75 11.046875 -9.0625 C 11.148438 -8.382812 11.203125 -7.578125 11.203125 -6.640625 C 11.203125 -4.617188 10.84375 -3.019531 10.125 -1.84375 C 10.457031 -1.644531 10.8125 -1.492188 11.1875 -1.390625 C 11.5625 -1.296875 12 -1.25 12.5 -1.25 C 13.25 -1.25 13.894531 -1.453125 14.4375 -1.859375 C 14.976562 -2.265625 15.394531 -2.863281 15.6875 -3.65625 C 15.976562 -4.445312 16.125 -5.421875 16.125 -6.578125 C 16.125 -7.609375 16.054688 -8.5 15.921875 -9.25 C 15.796875 -10.007812 15.628906 -10.6875 15.421875 -11.28125 C 15.597656 -11.332031 15.828125 -11.359375 16.109375 -11.359375 C 16.472656 -11.359375 16.753906 -11.300781 16.953125 -11.1875 C 17.160156 -11.070312 17.316406 -10.878906 17.421875 -10.609375 Z M 17.421875 -10.609375 "/></g></g></g><g fill="#000000" fill-opacity="1"><g transform="translate(310.354826, 529.882601)"><g/></g></g><g fill="#000000" fill-opacity="1"><g transform="translate(315.853849, 529.882601)"><g><path d="M 6.296875 -1.296875 C 7.066406 -1.296875 7.742188 -1.410156 8.328125 -1.640625 C 8.921875 -1.878906 9.378906 -2.222656 9.703125 -2.671875 C 10.023438 -3.128906 10.1875 -3.675781 10.1875 -4.3125 C 10.1875 -4.851562 10.039062 -5.300781 9.75 -5.65625 C 9.46875 -6.007812 9.046875 -6.300781 8.484375 -6.53125 C 7.929688 -6.769531 7.1875 -7 6.25 -7.21875 C 5.144531 -7.476562 4.234375 -7.773438 3.515625 -8.109375 C 2.796875 -8.441406 2.21875 -8.90625 1.78125 -9.5 C 1.34375 -10.09375 1.125 -10.859375 1.125 -11.796875 C 1.125 -12.671875 1.359375 -13.441406 1.828125 -14.109375 C 2.296875 -14.773438 2.941406 -15.285156 3.765625 -15.640625 C 4.585938 -16.003906 5.507812 -16.1875 6.53125 -16.1875 C 7.488281 -16.1875 8.351562 -16.070312 9.125 -15.84375 C 9.894531 -15.625 10.503906 -15.359375 10.953125 -15.046875 C 11.203125 -14.867188 11.367188 -14.710938 11.453125 -14.578125 C 11.546875 -14.453125 11.59375 -14.304688 11.59375 -14.140625 C 11.59375 -13.921875 11.53125 -13.703125 11.40625 -13.484375 C 11.289062 -13.273438 11.132812 -13.109375 10.9375 -12.984375 C 10.332031 -13.429688 9.644531 -13.800781 8.875 -14.09375 C 8.101562 -14.394531 7.320312 -14.546875 6.53125 -14.546875 C 5.832031 -14.546875 5.207031 -14.425781 4.65625 -14.1875 C 4.113281 -13.957031 3.695312 -13.632812 3.40625 -13.21875 C 3.113281 -12.8125 2.96875 -12.351562 2.96875 -11.84375 C 2.96875 -11.289062 3.082031 -10.84375 3.3125 -10.5 C 3.539062 -10.15625 3.914062 -9.863281 4.4375 -9.625 C 4.96875 -9.394531 5.71875 -9.164062 6.6875 -8.9375 C 7.863281 -8.632812 8.835938 -8.304688 9.609375 -7.953125 C 10.378906 -7.609375 10.984375 -7.140625 11.421875 -6.546875 C 11.859375 -5.960938 12.078125 -5.210938 12.078125 -4.296875 C 12.078125 -3.347656 11.832031 -2.523438 11.34375 -1.828125 C 10.863281 -1.140625 10.1875 -0.601562 9.3125 -0.21875 C 8.445312 0.164062 7.429688 0.359375 6.265625 0.359375 C 5.078125 0.359375 4.101562 0.234375 3.34375 -0.015625 C 2.582031 -0.265625 1.90625 -0.597656 1.3125 -1.015625 C 0.875 -1.335938 0.65625 -1.660156 0.65625 -1.984375 C 0.65625 -2.359375 0.90625 -2.742188 1.40625 -3.140625 C 1.90625 -2.640625 2.566406 -2.207031 3.390625 -1.84375 C 4.210938 -1.476562 5.179688 -1.296875 6.296875 -1.296875 Z M 6.296875 -1.296875 "/></g></g></g><g fill="#000000" fill-opacity="1"><g transform="translate(329.0295, 529.882601)"><g><path d="M 3.140625 -3.109375 C 3.140625 -2.441406 3.242188 -1.960938 3.453125 -1.671875 C 3.671875 -1.390625 4.03125 -1.25 4.53125 -1.25 C 4.863281 -1.25 5.203125 -1.316406 5.546875 -1.453125 C 5.898438 -1.597656 6.175781 -1.757812 6.375 -1.9375 C 6.75 -1.582031 6.9375 -1.253906 6.9375 -0.953125 C 6.9375 -0.785156 6.882812 -0.628906 6.78125 -0.484375 C 6.6875 -0.335938 6.546875 -0.210938 6.359375 -0.109375 C 5.796875 0.203125 5.097656 0.359375 4.265625 0.359375 C 3.265625 0.359375 2.519531 0.0820312 2.03125 -0.46875 C 1.550781 -1.03125 1.3125 -1.910156 1.3125 -3.109375 L 1.3125 -16.0625 C 1.40625 -16.070312 1.519531 -16.082031 1.65625 -16.09375 C 1.800781 -16.113281 1.929688 -16.125 2.046875 -16.125 C 2.335938 -16.125 2.5625 -16.09375 2.71875 -16.03125 C 2.875 -15.976562 2.984375 -15.878906 3.046875 -15.734375 C 3.109375 -15.597656 3.140625 -15.398438 3.140625 -15.140625 Z M 3.140625 -3.109375 "/></g></g></g><g fill="#000000" fill-opacity="1"><g transform="translate(335.958267, 529.882601)"><g><path d="M 12.9375 -1.5 C 13.019531 -1.300781 13.0625 -1.082031 13.0625 -0.84375 C 13.0625 -0.488281 12.960938 -0.226562 12.765625 -0.0625 C 12.515625 0.125 12.09375 0.21875 11.5 0.21875 C 10.90625 0.21875 10.429688 0.09375 10.078125 -0.15625 C 9.722656 -0.414062 9.488281 -0.847656 9.375 -1.453125 C 9.125 -1.117188 8.789062 -0.8125 8.375 -0.53125 C 7.957031 -0.257812 7.492188 -0.046875 6.984375 0.109375 C 6.472656 0.273438 5.972656 0.359375 5.484375 0.359375 C 4.191406 0.359375 3.191406 -0.0234375 2.484375 -0.796875 C 1.785156 -1.566406 1.4375 -2.734375 1.4375 -4.296875 L 1.4375 -11.421875 C 1.695312 -11.453125 1.929688 -11.46875 2.140625 -11.46875 C 2.554688 -11.46875 2.84375 -11.398438 3 -11.265625 C 3.164062 -11.128906 3.25 -10.863281 3.25 -10.46875 L 3.25 -4.328125 C 3.25 -3.242188 3.476562 -2.457031 3.9375 -1.96875 C 4.40625 -1.488281 5.046875 -1.25 5.859375 -1.25 C 6.492188 -1.25 7.125 -1.410156 7.75 -1.734375 C 8.375 -2.054688 8.894531 -2.46875 9.3125 -2.96875 L 9.3125 -11.390625 C 9.394531 -11.410156 9.503906 -11.425781 9.640625 -11.4375 C 9.785156 -11.457031 9.910156 -11.46875 10.015625 -11.46875 C 10.429688 -11.46875 10.71875 -11.398438 10.875 -11.265625 C 11.039062 -11.128906 11.125 -10.863281 11.125 -10.46875 L 11.125 -2.4375 C 11.125 -2 11.179688 -1.695312 11.296875 -1.53125 C 11.421875 -1.363281 11.644531 -1.28125 11.96875 -1.28125 C 12.363281 -1.28125 12.6875 -1.351562 12.9375 -1.5 Z M 12.9375 -1.5 "/></g></g></g><g fill="#000000" fill-opacity="1"><g transform="translate(349.243896, 529.882601)"><g><path d="M 10.875 -11.375 C 10.988281 -11.375 11.113281 -11.367188 11.25 -11.359375 C 11.394531 -11.359375 11.507812 -11.347656 11.59375 -11.328125 L 11.59375 -1.34375 C 11.59375 2.34375 9.816406 4.1875 6.265625 4.1875 C 5.390625 4.1875 4.617188 4.078125 3.953125 3.859375 C 3.285156 3.648438 2.742188 3.40625 2.328125 3.125 C 2.003906 2.914062 1.84375 2.660156 1.84375 2.359375 C 1.84375 2.015625 2.039062 1.640625 2.4375 1.234375 C 2.894531 1.597656 3.453125 1.910156 4.109375 2.171875 C 4.773438 2.441406 5.492188 2.578125 6.265625 2.578125 C 7.429688 2.578125 8.300781 2.265625 8.875 1.640625 C 9.457031 1.023438 9.75 0.0625 9.75 -1.25 L 9.75 -1.390625 C 9.3125 -0.972656 8.800781 -0.648438 8.21875 -0.421875 C 7.632812 -0.203125 7.007812 -0.09375 6.34375 -0.09375 C 5.34375 -0.09375 4.445312 -0.316406 3.65625 -0.765625 C 2.863281 -1.222656 2.238281 -1.882812 1.78125 -2.75 C 1.320312 -3.613281 1.09375 -4.640625 1.09375 -5.828125 C 1.09375 -7.003906 1.320312 -8.03125 1.78125 -8.90625 C 2.238281 -9.789062 2.867188 -10.46875 3.671875 -10.9375 C 4.484375 -11.40625 5.410156 -11.640625 6.453125 -11.640625 C 7.066406 -11.640625 7.660156 -11.523438 8.234375 -11.296875 C 8.804688 -11.066406 9.3125 -10.75 9.75 -10.34375 C 9.757812 -10.71875 9.84375 -10.984375 10 -11.140625 C 10.164062 -11.296875 10.457031 -11.375 10.875 -11.375 Z M 6.5625 -1.6875 C 7.175781 -1.6875 7.753906 -1.8125 8.296875 -2.0625 C 8.847656 -2.3125 9.332031 -2.648438 9.75 -3.078125 L 9.75 -8.640625 C 9.332031 -9.066406 8.847656 -9.40625 8.296875 -9.65625 C 7.753906 -9.90625 7.175781 -10.03125 6.5625 -10.03125 C 5.863281 -10.03125 5.242188 -9.859375 4.703125 -9.515625 C 4.160156 -9.179688 3.734375 -8.695312 3.421875 -8.0625 C 3.109375 -7.4375 2.953125 -6.703125 2.953125 -5.859375 C 2.953125 -5.035156 3.113281 -4.304688 3.4375 -3.671875 C 3.757812 -3.046875 4.191406 -2.554688 4.734375 -2.203125 C 5.285156 -1.859375 5.894531 -1.6875 6.5625 -1.6875 Z M 6.5625 -1.6875 "/></g></g></g><g fill="#000000" fill-opacity="1"><g transform="translate(362.265578, 529.882601)"><g><path d="M 8.46875 -2.328125 C 8.71875 -2.128906 8.90625 -1.941406 9.03125 -1.765625 C 9.15625 -1.585938 9.21875 -1.425781 9.21875 -1.28125 C 9.21875 -1.15625 9.1875 -1.039062 9.125 -0.9375 C 9.070312 -0.84375 8.984375 -0.734375 8.859375 -0.609375 C 8.597656 -0.347656 8.203125 -0.125 7.671875 0.0625 C 7.148438 0.257812 6.570312 0.359375 5.9375 0.359375 C 4.75 0.359375 3.882812 0.0351562 3.34375 -0.609375 C 2.8125 -1.253906 2.546875 -2.195312 2.546875 -3.4375 L 2.546875 -9.796875 L 0.265625 -9.796875 C 0.242188 -9.867188 0.226562 -9.960938 0.21875 -10.078125 C 0.21875 -10.191406 0.21875 -10.296875 0.21875 -10.390625 C 0.21875 -10.734375 0.269531 -10.96875 0.375 -11.09375 C 0.488281 -11.21875 0.71875 -11.28125 1.0625 -11.28125 L 2.546875 -11.28125 L 2.546875 -13.578125 C 2.546875 -13.972656 2.625 -14.242188 2.78125 -14.390625 C 2.945312 -14.535156 3.226562 -14.609375 3.625 -14.609375 C 3.726562 -14.609375 3.847656 -14.601562 3.984375 -14.59375 C 4.117188 -14.59375 4.226562 -14.582031 4.3125 -14.5625 L 4.3125 -11.28125 L 8.796875 -11.28125 C 8.816406 -11.226562 8.832031 -11.140625 8.84375 -11.015625 C 8.851562 -10.898438 8.859375 -10.789062 8.859375 -10.6875 C 8.859375 -10.332031 8.800781 -10.09375 8.6875 -9.96875 C 8.582031 -9.851562 8.367188 -9.796875 8.046875 -9.796875 L 4.3125 -9.796875 L 4.3125 -3.546875 C 4.3125 -2.753906 4.460938 -2.171875 4.765625 -1.796875 C 5.066406 -1.429688 5.507812 -1.25 6.09375 -1.25 C 6.5625 -1.25 6.984375 -1.335938 7.359375 -1.515625 C 7.734375 -1.703125 8.101562 -1.972656 8.46875 -2.328125 Z M 8.46875 -2.328125 "/></g></g></g><g fill="#000000" fill-opacity="1"><g transform="translate(372.361784, 529.882601)"><g><path d="M 8.484375 -11.125 C 8.710938 -10.957031 8.828125 -10.722656 8.828125 -10.421875 C 8.828125 -10.097656 8.726562 -9.753906 8.53125 -9.390625 C 8.0625 -9.679688 7.5 -9.828125 6.84375 -9.828125 C 6.28125 -9.828125 5.742188 -9.679688 5.234375 -9.390625 C 4.734375 -9.097656 4.316406 -8.703125 3.984375 -8.203125 L 3.984375 0.046875 C 3.835938 0.078125 3.601562 0.09375 3.28125 0.09375 C 2.988281 0.09375 2.757812 0.0625 2.59375 0 C 2.4375 -0.0625 2.320312 -0.160156 2.25 -0.296875 C 2.1875 -0.429688 2.15625 -0.632812 2.15625 -0.90625 L 2.15625 -8.796875 C 2.15625 -9.222656 2.082031 -9.523438 1.9375 -9.703125 C 1.789062 -9.878906 1.554688 -9.96875 1.234375 -9.96875 C 0.878906 -9.96875 0.585938 -9.910156 0.359375 -9.796875 C 0.265625 -9.992188 0.21875 -10.210938 0.21875 -10.453125 C 0.21875 -10.828125 0.382812 -11.097656 0.71875 -11.265625 C 1 -11.398438 1.351562 -11.46875 1.78125 -11.46875 C 2.382812 -11.46875 2.859375 -11.34375 3.203125 -11.09375 C 3.546875 -10.84375 3.773438 -10.429688 3.890625 -9.859375 C 4.234375 -10.367188 4.6875 -10.765625 5.25 -11.046875 C 5.8125 -11.335938 6.410156 -11.484375 7.046875 -11.484375 C 7.710938 -11.484375 8.191406 -11.363281 8.484375 -11.125 Z M 8.484375 -11.125 "/></g></g></g><g fill="#000000" fill-opacity="1"><g transform="translate(381.842092, 529.882601)"><g><path d="M 2.46875 -13.859375 C 2.050781 -13.859375 1.726562 -13.960938 1.5 -14.171875 C 1.28125 -14.390625 1.171875 -14.6875 1.171875 -15.0625 C 1.171875 -15.4375 1.28125 -15.726562 1.5 -15.9375 C 1.726562 -16.15625 2.050781 -16.265625 2.46875 -16.265625 C 2.875 -16.265625 3.191406 -16.15625 3.421875 -15.9375 C 3.648438 -15.726562 3.765625 -15.4375 3.765625 -15.0625 C 3.765625 -14.6875 3.648438 -14.390625 3.421875 -14.171875 C 3.191406 -13.960938 2.875 -13.859375 2.46875 -13.859375 Z M 3.734375 0.203125 C 3.003906 0.203125 2.457031 0.00390625 2.09375 -0.390625 C 1.726562 -0.785156 1.546875 -1.453125 1.546875 -2.390625 L 1.546875 -11.359375 C 1.628906 -11.367188 1.738281 -11.378906 1.875 -11.390625 C 2.019531 -11.410156 2.144531 -11.421875 2.25 -11.421875 C 2.664062 -11.421875 2.953125 -11.351562 3.109375 -11.21875 C 3.273438 -11.082031 3.359375 -10.816406 3.359375 -10.421875 L 3.359375 -2.46875 C 3.359375 -2.019531 3.414062 -1.710938 3.53125 -1.546875 C 3.65625 -1.378906 3.878906 -1.296875 4.203125 -1.296875 C 4.597656 -1.296875 4.921875 -1.367188 5.171875 -1.515625 C 5.253906 -1.328125 5.296875 -1.109375 5.296875 -0.859375 C 5.296875 -0.503906 5.195312 -0.25 5 -0.09375 C 4.75 0.101562 4.328125 0.203125 3.734375 0.203125 Z M 3.734375 0.203125 "/></g></g></g><g fill="#000000" fill-opacity="1"><g transform="translate(387.363111, 529.882601)"><g><path d="M 8.46875 -2.328125 C 8.71875 -2.128906 8.90625 -1.941406 9.03125 -1.765625 C 9.15625 -1.585938 9.21875 -1.425781 9.21875 -1.28125 C 9.21875 -1.15625 9.1875 -1.039062 9.125 -0.9375 C 9.070312 -0.84375 8.984375 -0.734375 8.859375 -0.609375 C 8.597656 -0.347656 8.203125 -0.125 7.671875 0.0625 C 7.148438 0.257812 6.570312 0.359375 5.9375 0.359375 C 4.75 0.359375 3.882812 0.0351562 3.34375 -0.609375 C 2.8125 -1.253906 2.546875 -2.195312 2.546875 -3.4375 L 2.546875 -9.796875 L 0.265625 -9.796875 C 0.242188 -9.867188 0.226562 -9.960938 0.21875 -10.078125 C 0.21875 -10.191406 0.21875 -10.296875 0.21875 -10.390625 C 0.21875 -10.734375 0.269531 -10.96875 0.375 -11.09375 C 0.488281 -11.21875 0.71875 -11.28125 1.0625 -11.28125 L 2.546875 -11.28125 L 2.546875 -13.578125 C 2.546875 -13.972656 2.625 -14.242188 2.78125 -14.390625 C 2.945312 -14.535156 3.226562 -14.609375 3.625 -14.609375 C 3.726562 -14.609375 3.847656 -14.601562 3.984375 -14.59375 C 4.117188 -14.59375 4.226562 -14.582031 4.3125 -14.5625 L 4.3125 -11.28125 L 8.796875 -11.28125 C 8.816406 -11.226562 8.832031 -11.140625 8.84375 -11.015625 C 8.851562 -10.898438 8.859375 -10.789062 8.859375 -10.6875 C 8.859375 -10.332031 8.800781 -10.09375 8.6875 -9.96875 C 8.582031 -9.851562 8.367188 -9.796875 8.046875 -9.796875 L 4.3125 -9.796875 L 4.3125 -3.546875 C 4.3125 -2.753906 4.460938 -2.171875 4.765625 -1.796875 C 5.066406 -1.429688 5.507812 -1.25 6.09375 -1.25 C 6.5625 -1.25 6.984375 -1.335938 7.359375 -1.515625 C 7.734375 -1.703125 8.101562 -1.972656 8.46875 -2.328125 Z M 8.46875 -2.328125 "/></g></g></g><g fill="#000000" fill-opacity="1"><g transform="translate(397.459317, 529.882601)"><g><path d="M 2.46875 -13.859375 C 2.050781 -13.859375 1.726562 -13.960938 1.5 -14.171875 C 1.28125 -14.390625 1.171875 -14.6875 1.171875 -15.0625 C 1.171875 -15.4375 1.28125 -15.726562 1.5 -15.9375 C 1.726562 -16.15625 2.050781 -16.265625 2.46875 -16.265625 C 2.875 -16.265625 3.191406 -16.15625 3.421875 -15.9375 C 3.648438 -15.726562 3.765625 -15.4375 3.765625 -15.0625 C 3.765625 -14.6875 3.648438 -14.390625 3.421875 -14.171875 C 3.191406 -13.960938 2.875 -13.859375 2.46875 -13.859375 Z M 3.734375 0.203125 C 3.003906 0.203125 2.457031 0.00390625 2.09375 -0.390625 C 1.726562 -0.785156 1.546875 -1.453125 1.546875 -2.390625 L 1.546875 -11.359375 C 1.628906 -11.367188 1.738281 -11.378906 1.875 -11.390625 C 2.019531 -11.410156 2.144531 -11.421875 2.25 -11.421875 C 2.664062 -11.421875 2.953125 -11.351562 3.109375 -11.21875 C 3.273438 -11.082031 3.359375 -10.816406 3.359375 -10.421875 L 3.359375 -2.46875 C 3.359375 -2.019531 3.414062 -1.710938 3.53125 -1.546875 C 3.65625 -1.378906 3.878906 -1.296875 4.203125 -1.296875 C 4.597656 -1.296875 4.921875 -1.367188 5.171875 -1.515625 C 5.253906 -1.328125 5.296875 -1.109375 5.296875 -0.859375 C 5.296875 -0.503906 5.195312 -0.25 5 -0.09375 C 4.75 0.101562 4.328125 0.203125 3.734375 0.203125 Z M 3.734375 0.203125 "/></g></g></g><g fill="#000000" fill-opacity="1"><g transform="translate(402.980336, 529.882601)"><g><path d="M 6.75 0.359375 C 5.59375 0.359375 4.59375 0.125 3.75 -0.34375 C 2.90625 -0.820312 2.25 -1.515625 1.78125 -2.421875 C 1.320312 -3.328125 1.09375 -4.410156 1.09375 -5.671875 C 1.09375 -6.910156 1.328125 -7.972656 1.796875 -8.859375 C 2.273438 -9.753906 2.929688 -10.441406 3.765625 -10.921875 C 4.609375 -11.398438 5.582031 -11.640625 6.6875 -11.640625 C 7.84375 -11.640625 8.84375 -11.40625 9.6875 -10.9375 C 10.53125 -10.46875 11.179688 -9.773438 11.640625 -8.859375 C 12.109375 -7.953125 12.34375 -6.867188 12.34375 -5.609375 C 12.34375 -4.378906 12.109375 -3.316406 11.640625 -2.421875 C 11.171875 -1.523438 10.515625 -0.835938 9.671875 -0.359375 C 8.828125 0.117188 7.851562 0.359375 6.75 0.359375 Z M 6.75 -1.25 C 7.5 -1.25 8.15625 -1.40625 8.71875 -1.71875 C 9.28125 -2.039062 9.71875 -2.523438 10.03125 -3.171875 C 10.351562 -3.828125 10.515625 -4.640625 10.515625 -5.609375 C 10.515625 -6.585938 10.351562 -7.40625 10.03125 -8.0625 C 9.707031 -8.726562 9.257812 -9.222656 8.6875 -9.546875 C 8.113281 -9.867188 7.445312 -10.03125 6.6875 -10.03125 C 5.9375 -10.03125 5.28125 -9.875 4.71875 -9.5625 C 4.15625 -9.25 3.710938 -8.765625 3.390625 -8.109375 C 3.078125 -7.453125 2.921875 -6.640625 2.921875 -5.671875 C 2.921875 -4.691406 3.082031 -3.867188 3.40625 -3.203125 C 3.726562 -2.546875 4.175781 -2.054688 4.75 -1.734375 C 5.320312 -1.410156 5.988281 -1.25 6.75 -1.25 Z M 6.75 -1.25 "/></g></g></g><g fill="#000000" fill-opacity="1"><g transform="translate(416.419944, 529.882601)"><g><path d="M 13.734375 -1.515625 C 13.816406 -1.328125 13.859375 -1.109375 13.859375 -0.859375 C 13.859375 -0.503906 13.753906 -0.25 13.546875 -0.09375 C 13.296875 0.101562 12.878906 0.203125 12.296875 0.203125 C 11.566406 0.203125 11.015625 0.00390625 10.640625 -0.390625 C 10.273438 -0.785156 10.09375 -1.453125 10.09375 -2.390625 L 10.09375 -6.84375 C 10.09375 -8 9.84375 -8.816406 9.34375 -9.296875 C 8.851562 -9.785156 8.164062 -10.03125 7.28125 -10.03125 C 6.664062 -10.03125 6.054688 -9.882812 5.453125 -9.59375 C 4.847656 -9.3125 4.359375 -8.96875 3.984375 -8.5625 L 3.984375 0.046875 C 3.835938 0.078125 3.601562 0.09375 3.28125 0.09375 C 2.988281 0.09375 2.757812 0.0625 2.59375 0 C 2.4375 -0.0625 2.320312 -0.160156 2.25 -0.296875 C 2.1875 -0.429688 2.15625 -0.632812 2.15625 -0.90625 L 2.15625 -8.796875 C 2.15625 -9.222656 2.082031 -9.523438 1.9375 -9.703125 C 1.789062 -9.878906 1.554688 -9.96875 1.234375 -9.96875 C 0.878906 -9.96875 0.585938 -9.910156 0.359375 -9.796875 C 0.265625 -9.992188 0.21875 -10.210938 0.21875 -10.453125 C 0.21875 -10.828125 0.382812 -11.097656 0.71875 -11.265625 C 1 -11.398438 1.351562 -11.46875 1.78125 -11.46875 C 2.34375 -11.46875 2.796875 -11.351562 3.140625 -11.125 C 3.484375 -10.90625 3.71875 -10.539062 3.84375 -10.03125 C 4.257812 -10.488281 4.804688 -10.867188 5.484375 -11.171875 C 6.171875 -11.484375 6.910156 -11.640625 7.703125 -11.640625 C 9.066406 -11.640625 10.109375 -11.25 10.828125 -10.46875 C 11.554688 -9.695312 11.921875 -8.503906 11.921875 -6.890625 L 11.921875 -2.46875 C 11.921875 -2.019531 11.976562 -1.710938 12.09375 -1.546875 C 12.21875 -1.378906 12.441406 -1.296875 12.765625 -1.296875 C 13.160156 -1.296875 13.484375 -1.367188 13.734375 -1.515625 Z M 13.734375 -1.515625 "/></g></g></g><g fill="#000000" fill-opacity="1"><g transform="translate(430.387458, 529.882601)"><g/></g></g><g fill="#000000" fill-opacity="1"><g transform="translate(435.886481, 529.882601)"><g><path d="M 17.421875 -10.609375 C 17.554688 -10.253906 17.675781 -9.734375 17.78125 -9.046875 C 17.894531 -8.367188 17.953125 -7.566406 17.953125 -6.640625 C 17.953125 -4.453125 17.492188 -2.738281 16.578125 -1.5 C 15.660156 -0.257812 14.265625 0.359375 12.390625 0.359375 C 11.785156 0.359375 11.1875 0.265625 10.59375 0.078125 C 10.007812 -0.109375 9.5 -0.363281 9.0625 -0.6875 C 8.164062 0.0078125 7.019531 0.359375 5.625 0.359375 C 5.1875 0.359375 4.710938 0.285156 4.203125 0.140625 C 3.691406 0.00390625 3.285156 -0.148438 2.984375 -0.328125 C 2.753906 -0.460938 2.578125 -0.585938 2.453125 -0.703125 C 2.335938 -0.816406 2.257812 -0.945312 2.21875 -1.09375 C 2.175781 -1.238281 2.15625 -1.445312 2.15625 -1.71875 L 2.15625 -8.796875 C 2.15625 -9.222656 2.082031 -9.523438 1.9375 -9.703125 C 1.789062 -9.878906 1.554688 -9.96875 1.234375 -9.96875 C 0.878906 -9.96875 0.585938 -9.910156 0.359375 -9.796875 C 0.265625 -9.992188 0.21875 -10.210938 0.21875 -10.453125 C 0.21875 -10.828125 0.382812 -11.097656 0.71875 -11.265625 C 1 -11.398438 1.351562 -11.46875 1.78125 -11.46875 C 2.507812 -11.46875 3.054688 -11.269531 3.421875 -10.875 C 3.796875 -10.476562 3.984375 -9.804688 3.984375 -8.859375 L 3.984375 -1.6875 C 4.523438 -1.394531 5.097656 -1.25 5.703125 -1.25 C 8.148438 -1.25 9.375 -3.023438 9.375 -6.578125 C 9.375 -7.609375 9.304688 -8.492188 9.171875 -9.234375 C 9.035156 -9.972656 8.867188 -10.648438 8.671875 -11.265625 C 8.847656 -11.328125 9.070312 -11.359375 9.34375 -11.359375 C 9.71875 -11.359375 10.007812 -11.300781 10.21875 -11.1875 C 10.425781 -11.070312 10.582031 -10.878906 10.6875 -10.609375 C 10.820312 -10.265625 10.941406 -9.75 11.046875 -9.0625 C 11.148438 -8.382812 11.203125 -7.578125 11.203125 -6.640625 C 11.203125 -4.617188 10.84375 -3.019531 10.125 -1.84375 C 10.457031 -1.644531 10.8125 -1.492188 11.1875 -1.390625 C 11.5625 -1.296875 12 -1.25 12.5 -1.25 C 13.25 -1.25 13.894531 -1.453125 14.4375 -1.859375 C 14.976562 -2.265625 15.394531 -2.863281 15.6875 -3.65625 C 15.976562 -4.445312 16.125 -5.421875 16.125 -6.578125 C 16.125 -7.609375 16.054688 -8.5 15.921875 -9.25 C 15.796875 -10.007812 15.628906 -10.6875 15.421875 -11.28125 C 15.597656 -11.332031 15.828125 -11.359375 16.109375 -11.359375 C 16.472656 -11.359375 16.753906 -11.300781 16.953125 -11.1875 C 17.160156 -11.070312 17.316406 -10.878906 17.421875 -10.609375 Z M 17.421875 -10.609375 "/></g></g></g><g fill="#000000" fill-opacity="1"><g transform="translate(454.935079, 529.882601)"><g><path d="M 6.75 0.359375 C 5.59375 0.359375 4.59375 0.125 3.75 -0.34375 C 2.90625 -0.820312 2.25 -1.515625 1.78125 -2.421875 C 1.320312 -3.328125 1.09375 -4.410156 1.09375 -5.671875 C 1.09375 -6.910156 1.328125 -7.972656 1.796875 -8.859375 C 2.273438 -9.753906 2.929688 -10.441406 3.765625 -10.921875 C 4.609375 -11.398438 5.582031 -11.640625 6.6875 -11.640625 C 7.84375 -11.640625 8.84375 -11.40625 9.6875 -10.9375 C 10.53125 -10.46875 11.179688 -9.773438 11.640625 -8.859375 C 12.109375 -7.953125 12.34375 -6.867188 12.34375 -5.609375 C 12.34375 -4.378906 12.109375 -3.316406 11.640625 -2.421875 C 11.171875 -1.523438 10.515625 -0.835938 9.671875 -0.359375 C 8.828125 0.117188 7.851562 0.359375 6.75 0.359375 Z M 6.75 -1.25 C 7.5 -1.25 8.15625 -1.40625 8.71875 -1.71875 C 9.28125 -2.039062 9.71875 -2.523438 10.03125 -3.171875 C 10.351562 -3.828125 10.515625 -4.640625 10.515625 -5.609375 C 10.515625 -6.585938 10.351562 -7.40625 10.03125 -8.0625 C 9.707031 -8.726562 9.257812 -9.222656 8.6875 -9.546875 C 8.113281 -9.867188 7.445312 -10.03125 6.6875 -10.03125 C 5.9375 -10.03125 5.28125 -9.875 4.71875 -9.5625 C 4.15625 -9.25 3.710938 -8.765625 3.390625 -8.109375 C 3.078125 -7.453125 2.921875 -6.640625 2.921875 -5.671875 C 2.921875 -4.691406 3.082031 -3.867188 3.40625 -3.203125 C 3.726562 -2.546875 4.175781 -2.054688 4.75 -1.734375 C 5.320312 -1.410156 5.988281 -1.25 6.75 -1.25 Z M 6.75 -1.25 "/></g></g></g><g fill="#000000" fill-opacity="1"><g transform="translate(468.3747, 529.882601)"><g><path d="M 8.484375 -11.125 C 8.710938 -10.957031 8.828125 -10.722656 8.828125 -10.421875 C 8.828125 -10.097656 8.726562 -9.753906 8.53125 -9.390625 C 8.0625 -9.679688 7.5 -9.828125 6.84375 -9.828125 C 6.28125 -9.828125 5.742188 -9.679688 5.234375 -9.390625 C 4.734375 -9.097656 4.316406 -8.703125 3.984375 -8.203125 L 3.984375 0.046875 C 3.835938 0.078125 3.601562 0.09375 3.28125 0.09375 C 2.988281 0.09375 2.757812 0.0625 2.59375 0 C 2.4375 -0.0625 2.320312 -0.160156 2.25 -0.296875 C 2.1875 -0.429688 2.15625 -0.632812 2.15625 -0.90625 L 2.15625 -8.796875 C 2.15625 -9.222656 2.082031 -9.523438 1.9375 -9.703125 C 1.789062 -9.878906 1.554688 -9.96875 1.234375 -9.96875 C 0.878906 -9.96875 0.585938 -9.910156 0.359375 -9.796875 C 0.265625 -9.992188 0.21875 -10.210938 0.21875 -10.453125 C 0.21875 -10.828125 0.382812 -11.097656 0.71875 -11.265625 C 1 -11.398438 1.351562 -11.46875 1.78125 -11.46875 C 2.382812 -11.46875 2.859375 -11.34375 3.203125 -11.09375 C 3.546875 -10.84375 3.773438 -10.429688 3.890625 -9.859375 C 4.234375 -10.367188 4.6875 -10.765625 5.25 -11.046875 C 5.8125 -11.335938 6.410156 -11.484375 7.046875 -11.484375 C 7.710938 -11.484375 8.191406 -11.363281 8.484375 -11.125 Z M 8.484375 -11.125 "/></g></g></g><g fill="#000000" fill-opacity="1"><g transform="translate(477.855008, 529.882601)"><g><path d="M 11.3125 -0.21875 C 11.164062 -0.132812 10.992188 -0.0625 10.796875 0 C 10.597656 0.0625 10.382812 0.09375 10.15625 0.09375 C 9.882812 0.09375 9.664062 0.0390625 9.5 -0.0625 C 9.34375 -0.175781 9.164062 -0.421875 8.96875 -0.796875 L 7 -4.53125 C 6.53125 -4.46875 6.101562 -4.4375 5.71875 -4.4375 C 4.882812 -4.4375 4.097656 -4.519531 3.359375 -4.6875 L 3.359375 0.046875 C 3.273438 0.0546875 3.160156 0.0664062 3.015625 0.078125 C 2.878906 0.0859375 2.753906 0.09375 2.640625 0.09375 C 2.347656 0.09375 2.125 0.0664062 1.96875 0.015625 C 1.8125 -0.0351562 1.703125 -0.128906 1.640625 -0.265625 C 1.578125 -0.410156 1.546875 -0.613281 1.546875 -0.875 L 1.546875 -16.078125 C 1.628906 -16.097656 1.734375 -16.109375 1.859375 -16.109375 C 1.992188 -16.117188 2.125 -16.125 2.25 -16.125 C 2.539062 -16.125 2.757812 -16.097656 2.90625 -16.046875 C 3.0625 -15.992188 3.175781 -15.894531 3.25 -15.75 C 3.320312 -15.613281 3.359375 -15.414062 3.359375 -15.15625 L 3.359375 -9.59375 C 3.828125 -10.21875 4.40625 -10.710938 5.09375 -11.078125 C 5.789062 -11.453125 6.578125 -11.640625 7.453125 -11.640625 C 8.128906 -11.640625 8.742188 -11.503906 9.296875 -11.234375 C 9.847656 -10.972656 10.28125 -10.582031 10.59375 -10.0625 C 10.90625 -9.539062 11.0625 -8.90625 11.0625 -8.15625 C 11.0625 -7.394531 10.835938 -6.734375 10.390625 -6.171875 C 9.941406 -5.609375 9.382812 -5.207031 8.71875 -4.96875 Z M 5.625 -5.859375 C 6.832031 -5.859375 7.75 -6.03125 8.375 -6.375 C 9 -6.726562 9.3125 -7.3125 9.3125 -8.125 C 9.3125 -8.769531 9.097656 -9.257812 8.671875 -9.59375 C 8.253906 -9.925781 7.738281 -10.09375 7.125 -10.09375 C 6.375 -10.09375 5.671875 -9.859375 5.015625 -9.390625 C 4.359375 -8.921875 3.804688 -8.273438 3.359375 -7.453125 L 3.359375 -6.078125 C 3.734375 -6.003906 4.09375 -5.945312 4.4375 -5.90625 C 4.78125 -5.875 5.175781 -5.859375 5.625 -5.859375 Z M 5.625 -5.859375 "/></g></g></g><g fill="#000000" fill-opacity="1"><g transform="translate(490.040836, 529.882601)"><g><path d="M 5.140625 0.359375 C 4.441406 0.359375 3.722656 0.257812 2.984375 0.0625 C 2.253906 -0.125 1.707031 -0.347656 1.34375 -0.609375 C 1.03125 -0.835938 0.875 -1.082031 0.875 -1.34375 C 0.875 -1.625 1.066406 -1.988281 1.453125 -2.4375 C 1.921875 -2.0625 2.488281 -1.75 3.15625 -1.5 C 3.820312 -1.257812 4.5 -1.140625 5.1875 -1.140625 C 6.1875 -1.140625 6.941406 -1.316406 7.453125 -1.671875 C 7.972656 -2.023438 8.234375 -2.53125 8.234375 -3.1875 C 8.234375 -3.550781 8.132812 -3.84375 7.9375 -4.0625 C 7.75 -4.289062 7.441406 -4.472656 7.015625 -4.609375 C 6.585938 -4.742188 5.976562 -4.878906 5.1875 -5.015625 C 4.289062 -5.160156 3.550781 -5.347656 2.96875 -5.578125 C 2.394531 -5.804688 1.945312 -6.140625 1.625 -6.578125 C 1.300781 -7.015625 1.140625 -7.601562 1.140625 -8.34375 C 1.140625 -9.03125 1.335938 -9.625 1.734375 -10.125 C 2.128906 -10.625 2.664062 -11 3.34375 -11.25 C 4.03125 -11.507812 4.800781 -11.640625 5.65625 -11.640625 C 6.28125 -11.640625 6.90625 -11.5625 7.53125 -11.40625 C 8.15625 -11.25 8.664062 -11.035156 9.0625 -10.765625 C 9.375 -10.535156 9.53125 -10.304688 9.53125 -10.078125 C 9.53125 -9.816406 9.351562 -9.460938 9 -9.015625 C 8.5625 -9.367188 8.023438 -9.644531 7.390625 -9.84375 C 6.765625 -10.039062 6.148438 -10.140625 5.546875 -10.140625 C 4.722656 -10.140625 4.066406 -9.984375 3.578125 -9.671875 C 3.085938 -9.367188 2.84375 -8.929688 2.84375 -8.359375 C 2.84375 -7.960938 2.941406 -7.648438 3.140625 -7.421875 C 3.335938 -7.191406 3.613281 -7.019531 3.96875 -6.90625 C 4.332031 -6.789062 4.8125 -6.6875 5.40625 -6.59375 C 6.40625 -6.4375 7.222656 -6.25 7.859375 -6.03125 C 8.503906 -5.8125 9.019531 -5.476562 9.40625 -5.03125 C 9.789062 -4.582031 9.984375 -3.96875 9.984375 -3.1875 C 9.984375 -2.457031 9.796875 -1.820312 9.421875 -1.28125 C 9.046875 -0.75 8.492188 -0.34375 7.765625 -0.0625 C 7.046875 0.21875 6.171875 0.359375 5.140625 0.359375 Z M 5.140625 0.359375 "/></g></g></g><g fill="#000000" fill-opacity="1"><g transform="translate(335.191518, 557.407504)"><g><path d="M 1.59375 -14.453125 C 1.757812 -14.492188 1.988281 -14.515625 2.28125 -14.515625 C 2.570312 -14.515625 2.785156 -14.492188 2.921875 -14.453125 C 3.066406 -14.421875 3.160156 -14.351562 3.203125 -14.25 C 3.253906 -14.144531 3.28125 -13.984375 3.28125 -13.765625 L 3.28125 0.015625 C 3.125 0.0546875 2.894531 0.078125 2.59375 0.078125 C 2.300781 0.078125 2.082031 0.0546875 1.9375 0.015625 C 1.800781 -0.0234375 1.707031 -0.09375 1.65625 -0.1875 C 1.613281 -0.289062 1.59375 -0.457031 1.59375 -0.6875 Z M 1.59375 -14.453125 "/></g></g></g><g fill="#000000" fill-opacity="1"><g transform="translate(340.069596, 557.407504)"><g><path d="M 12.484375 -1.375 C 12.554688 -1.207031 12.59375 -1.007812 12.59375 -0.78125 C 12.59375 -0.457031 12.5 -0.222656 12.3125 -0.078125 C 12.09375 0.0976562 11.71875 0.1875 11.1875 0.1875 C 10.519531 0.1875 10.019531 0.00390625 9.6875 -0.359375 C 9.351562 -0.722656 9.1875 -1.332031 9.1875 -2.1875 L 9.1875 -6.21875 C 9.1875 -7.269531 8.957031 -8.015625 8.5 -8.453125 C 8.039062 -8.898438 7.414062 -9.125 6.625 -9.125 C 6.0625 -9.125 5.503906 -8.992188 4.953125 -8.734375 C 4.410156 -8.472656 3.96875 -8.15625 3.625 -7.78125 L 3.625 0.046875 C 3.488281 0.0664062 3.273438 0.078125 2.984375 0.078125 C 2.710938 0.078125 2.503906 0.0507812 2.359375 0 C 2.210938 -0.0507812 2.109375 -0.140625 2.046875 -0.265625 C 1.984375 -0.390625 1.953125 -0.570312 1.953125 -0.8125 L 1.953125 -8 C 1.953125 -8.382812 1.882812 -8.65625 1.75 -8.8125 C 1.625 -8.976562 1.414062 -9.0625 1.125 -9.0625 C 0.800781 -9.0625 0.53125 -9.007812 0.3125 -8.90625 C 0.238281 -9.09375 0.203125 -9.289062 0.203125 -9.5 C 0.203125 -9.84375 0.351562 -10.085938 0.65625 -10.234375 C 0.914062 -10.359375 1.238281 -10.421875 1.625 -10.421875 C 2.125 -10.421875 2.53125 -10.316406 2.84375 -10.109375 C 3.15625 -9.910156 3.375 -9.582031 3.5 -9.125 C 3.875 -9.53125 4.367188 -9.875 4.984375 -10.15625 C 5.609375 -10.4375 6.28125 -10.578125 7 -10.578125 C 8.238281 -10.578125 9.1875 -10.222656 9.84375 -9.515625 C 10.507812 -8.804688 10.84375 -7.722656 10.84375 -6.265625 L 10.84375 -2.234375 C 10.84375 -1.835938 10.894531 -1.5625 11 -1.40625 C 11.101562 -1.257812 11.300781 -1.1875 11.59375 -1.1875 C 11.957031 -1.1875 12.253906 -1.25 12.484375 -1.375 Z M 12.484375 -1.375 "/></g></g></g><g fill="#000000" fill-opacity="1"><g transform="translate(352.764584, 557.407504)"><g/></g></g><g fill="#000000" fill-opacity="1"><g transform="translate(357.762608, 557.407504)"><g><path d="M 7.34375 -7.515625 C 8.25 -7.265625 8.953125 -6.832031 9.453125 -6.21875 C 9.953125 -5.601562 10.203125 -4.863281 10.203125 -4 C 10.203125 -3.1875 10 -2.453125 9.59375 -1.796875 C 9.195312 -1.140625 8.601562 -0.625 7.8125 -0.25 C 7.019531 0.125 6.066406 0.3125 4.953125 0.3125 C 3.328125 0.3125 1.984375 0.0078125 0.921875 -0.59375 C 0.691406 -0.726562 0.53125 -0.867188 0.4375 -1.015625 C 0.34375 -1.160156 0.296875 -1.328125 0.296875 -1.515625 C 0.296875 -1.867188 0.476562 -2.222656 0.84375 -2.578125 C 1.34375 -2.148438 1.941406 -1.8125 2.640625 -1.5625 C 3.335938 -1.3125 4.101562 -1.1875 4.9375 -1.1875 C 5.632812 -1.1875 6.25 -1.304688 6.78125 -1.546875 C 7.320312 -1.796875 7.742188 -2.132812 8.046875 -2.5625 C 8.347656 -2.988281 8.5 -3.460938 8.5 -3.984375 C 8.5 -5.765625 7.257812 -6.65625 4.78125 -6.65625 L 2.921875 -6.65625 C 2.671875 -6.65625 2.488281 -6.710938 2.375 -6.828125 C 2.269531 -6.941406 2.21875 -7.140625 2.21875 -7.421875 C 2.21875 -7.617188 2.25 -7.851562 2.3125 -8.125 L 4.84375 -8.125 C 5.5625 -8.125 6.171875 -8.242188 6.671875 -8.484375 C 7.179688 -8.734375 7.566406 -9.066406 7.828125 -9.484375 C 8.085938 -9.910156 8.21875 -10.375 8.21875 -10.875 C 8.21875 -11.632812 7.9375 -12.210938 7.375 -12.609375 C 6.820312 -13.015625 6.078125 -13.21875 5.140625 -13.21875 C 4.378906 -13.21875 3.664062 -13.109375 3 -12.890625 C 2.332031 -12.679688 1.738281 -12.390625 1.21875 -12.015625 C 1.0625 -12.140625 0.929688 -12.285156 0.828125 -12.453125 C 0.734375 -12.617188 0.6875 -12.785156 0.6875 -12.953125 C 0.6875 -13.128906 0.726562 -13.28125 0.8125 -13.40625 C 0.894531 -13.53125 1.046875 -13.660156 1.265625 -13.796875 C 1.660156 -14.054688 2.203125 -14.273438 2.890625 -14.453125 C 3.578125 -14.628906 4.304688 -14.71875 5.078125 -14.71875 C 6.078125 -14.71875 6.9375 -14.5625 7.65625 -14.25 C 8.375 -13.9375 8.921875 -13.492188 9.296875 -12.921875 C 9.679688 -12.347656 9.875 -11.664062 9.875 -10.875 C 9.875 -10.15625 9.65625 -9.492188 9.21875 -8.890625 C 8.78125 -8.285156 8.15625 -7.828125 7.34375 -7.515625 Z M 7.34375 -7.515625 "/></g></g></g><g fill="#000000" fill-opacity="1"><g transform="translate(368.958191, 557.407504)"><g/></g></g><g fill="#000000" fill-opacity="1"><g transform="translate(373.956214, 557.407504)"><g><path d="M 4.6875 0.3125 C 4.039062 0.3125 3.382812 0.222656 2.71875 0.046875 C 2.050781 -0.117188 1.550781 -0.320312 1.21875 -0.5625 C 0.9375 -0.757812 0.796875 -0.976562 0.796875 -1.21875 C 0.796875 -1.46875 0.96875 -1.800781 1.3125 -2.21875 C 1.738281 -1.875 2.253906 -1.59375 2.859375 -1.375 C 3.472656 -1.15625 4.09375 -1.046875 4.71875 -1.046875 C 5.625 -1.046875 6.3125 -1.203125 6.78125 -1.515625 C 7.25 -1.835938 7.484375 -2.300781 7.484375 -2.90625 C 7.484375 -3.238281 7.394531 -3.503906 7.21875 -3.703125 C 7.039062 -3.898438 6.757812 -4.0625 6.375 -4.1875 C 5.988281 -4.3125 5.4375 -4.4375 4.71875 -4.5625 C 3.90625 -4.695312 3.234375 -4.863281 2.703125 -5.0625 C 2.179688 -5.269531 1.773438 -5.570312 1.484375 -5.96875 C 1.191406 -6.375 1.046875 -6.910156 1.046875 -7.578125 C 1.046875 -8.203125 1.222656 -8.738281 1.578125 -9.1875 C 1.941406 -9.644531 2.429688 -9.988281 3.046875 -10.21875 C 3.671875 -10.457031 4.367188 -10.578125 5.140625 -10.578125 C 5.710938 -10.578125 6.28125 -10.503906 6.84375 -10.359375 C 7.414062 -10.222656 7.878906 -10.03125 8.234375 -9.78125 C 8.515625 -9.582031 8.65625 -9.375 8.65625 -9.15625 C 8.65625 -8.914062 8.5 -8.597656 8.1875 -8.203125 C 7.78125 -8.523438 7.289062 -8.773438 6.71875 -8.953125 C 6.144531 -9.128906 5.585938 -9.21875 5.046875 -9.21875 C 4.296875 -9.21875 3.695312 -9.078125 3.25 -8.796875 C 2.800781 -8.515625 2.578125 -8.113281 2.578125 -7.59375 C 2.578125 -7.238281 2.664062 -6.957031 2.84375 -6.75 C 3.03125 -6.539062 3.285156 -6.382812 3.609375 -6.28125 C 3.929688 -6.175781 4.367188 -6.082031 4.921875 -6 C 5.828125 -5.851562 6.566406 -5.679688 7.140625 -5.484375 C 7.722656 -5.285156 8.191406 -4.976562 8.546875 -4.5625 C 8.898438 -4.15625 9.078125 -3.601562 9.078125 -2.90625 C 9.078125 -2.238281 8.90625 -1.660156 8.5625 -1.171875 C 8.226562 -0.679688 7.726562 -0.3125 7.0625 -0.0625 C 6.40625 0.1875 5.613281 0.3125 4.6875 0.3125 Z M 4.6875 0.3125 "/></g></g></g><g fill="#000000" fill-opacity="1"><g transform="translate(383.832316, 557.407504)"><g><path d="M 7.703125 -2.125 C 7.929688 -1.9375 8.097656 -1.757812 8.203125 -1.59375 C 8.316406 -1.4375 8.375 -1.289062 8.375 -1.15625 C 8.375 -1.050781 8.347656 -0.953125 8.296875 -0.859375 C 8.242188 -0.765625 8.164062 -0.664062 8.0625 -0.5625 C 7.820312 -0.320312 7.460938 -0.117188 6.984375 0.046875 C 6.503906 0.222656 5.976562 0.3125 5.40625 0.3125 C 4.320312 0.3125 3.535156 0.0195312 3.046875 -0.5625 C 2.554688 -1.144531 2.3125 -2 2.3125 -3.125 L 2.3125 -8.90625 L 0.234375 -8.90625 C 0.222656 -8.96875 0.210938 -9.050781 0.203125 -9.15625 C 0.203125 -9.257812 0.203125 -9.351562 0.203125 -9.4375 C 0.203125 -9.757812 0.25 -9.976562 0.34375 -10.09375 C 0.445312 -10.207031 0.648438 -10.265625 0.953125 -10.265625 L 2.3125 -10.265625 L 2.3125 -12.34375 C 2.3125 -12.695312 2.382812 -12.941406 2.53125 -13.078125 C 2.6875 -13.210938 2.941406 -13.28125 3.296875 -13.28125 C 3.390625 -13.28125 3.492188 -13.273438 3.609375 -13.265625 C 3.734375 -13.265625 3.835938 -13.253906 3.921875 -13.234375 L 3.921875 -10.265625 L 8 -10.265625 C 8.007812 -10.210938 8.019531 -10.128906 8.03125 -10.015625 C 8.050781 -9.910156 8.0625 -9.8125 8.0625 -9.71875 C 8.0625 -9.394531 8.007812 -9.175781 7.90625 -9.0625 C 7.8125 -8.957031 7.613281 -8.90625 7.3125 -8.90625 L 3.921875 -8.90625 L 3.921875 -3.21875 C 3.921875 -2.5 4.054688 -1.972656 4.328125 -1.640625 C 4.597656 -1.304688 5.003906 -1.140625 5.546875 -1.140625 C 5.972656 -1.140625 6.351562 -1.222656 6.6875 -1.390625 C 7.03125 -1.554688 7.367188 -1.800781 7.703125 -2.125 Z M 7.703125 -2.125 "/></g></g></g><g fill="#000000" fill-opacity="1"><g transform="translate(393.008692, 557.407504)"><g><path d="M 9.4375 -2.34375 C 9.757812 -2.050781 9.921875 -1.742188 9.921875 -1.421875 C 9.921875 -1.140625 9.804688 -0.90625 9.578125 -0.71875 C 9.273438 -0.4375 8.8125 -0.195312 8.1875 0 C 7.570312 0.207031 6.867188 0.3125 6.078125 0.3125 C 5.035156 0.3125 4.132812 0.101562 3.375 -0.3125 C 2.613281 -0.726562 2.023438 -1.34375 1.609375 -2.15625 C 1.203125 -2.96875 1 -3.941406 1 -5.078125 C 1 -6.234375 1.234375 -7.226562 1.703125 -8.0625 C 2.171875 -8.894531 2.789062 -9.519531 3.5625 -9.9375 C 4.332031 -10.363281 5.1875 -10.578125 6.125 -10.578125 C 6.945312 -10.578125 7.664062 -10.441406 8.28125 -10.171875 C 8.90625 -9.898438 9.382812 -9.519531 9.71875 -9.03125 C 10.050781 -8.539062 10.21875 -7.976562 10.21875 -7.34375 C 10.21875 -6.3125 9.820312 -5.539062 9.03125 -5.03125 C 8.238281 -4.53125 7.078125 -4.28125 5.546875 -4.28125 C 4.515625 -4.28125 3.53125 -4.382812 2.59375 -4.59375 C 2.707031 -3.40625 3.078125 -2.53125 3.703125 -1.96875 C 4.335938 -1.414062 5.15625 -1.140625 6.15625 -1.140625 C 6.84375 -1.140625 7.460938 -1.253906 8.015625 -1.484375 C 8.566406 -1.722656 9.039062 -2.007812 9.4375 -2.34375 Z M 6.09375 -9.1875 C 5.550781 -9.1875 5.03125 -9.066406 4.53125 -8.828125 C 4.03125 -8.597656 3.601562 -8.234375 3.25 -7.734375 C 2.90625 -7.242188 2.695312 -6.617188 2.625 -5.859375 C 3.53125 -5.679688 4.507812 -5.59375 5.5625 -5.59375 C 6.570312 -5.59375 7.332031 -5.71875 7.84375 -5.96875 C 8.363281 -6.226562 8.625 -6.695312 8.625 -7.375 C 8.625 -7.726562 8.507812 -8.039062 8.28125 -8.3125 C 8.0625 -8.582031 7.757812 -8.796875 7.375 -8.953125 C 6.988281 -9.109375 6.5625 -9.1875 6.09375 -9.1875 Z M 6.09375 -9.1875 "/></g></g></g><g fill="#000000" fill-opacity="1"><g transform="translate(404.424185, 557.407504)"><g><path d="M 6.765625 -10.578125 C 7.710938 -10.578125 8.539062 -10.359375 9.25 -9.921875 C 9.957031 -9.492188 10.507812 -8.875 10.90625 -8.0625 C 11.3125 -7.25 11.515625 -6.28125 11.515625 -5.15625 C 11.515625 -4.050781 11.304688 -3.082031 10.890625 -2.25 C 10.484375 -1.425781 9.910156 -0.789062 9.171875 -0.34375 C 8.429688 0.09375 7.59375 0.3125 6.65625 0.3125 C 6.082031 0.3125 5.53125 0.207031 5 0 C 4.476562 -0.207031 4.019531 -0.507812 3.625 -0.90625 L 3.625 3.65625 C 3.539062 3.675781 3.4375 3.6875 3.3125 3.6875 C 3.1875 3.695312 3.078125 3.703125 2.984375 3.703125 C 2.710938 3.703125 2.503906 3.675781 2.359375 3.625 C 2.222656 3.582031 2.117188 3.5 2.046875 3.375 C 1.984375 3.25 1.953125 3.0625 1.953125 2.8125 L 1.953125 -8 C 1.953125 -8.382812 1.882812 -8.65625 1.75 -8.8125 C 1.625 -8.976562 1.414062 -9.0625 1.125 -9.0625 C 0.800781 -9.0625 0.53125 -9.007812 0.3125 -8.90625 C 0.238281 -9.09375 0.203125 -9.289062 0.203125 -9.5 C 0.203125 -9.84375 0.351562 -10.085938 0.65625 -10.234375 C 0.914062 -10.359375 1.238281 -10.421875 1.625 -10.421875 C 2.113281 -10.421875 2.507812 -10.328125 2.8125 -10.140625 C 3.125 -9.953125 3.347656 -9.644531 3.484375 -9.21875 C 3.890625 -9.65625 4.367188 -9.988281 4.921875 -10.21875 C 5.484375 -10.457031 6.097656 -10.578125 6.765625 -10.578125 Z M 6.5625 -1.140625 C 7.1875 -1.140625 7.742188 -1.300781 8.234375 -1.625 C 8.734375 -1.957031 9.125 -2.421875 9.40625 -3.015625 C 9.695312 -3.617188 9.84375 -4.328125 9.84375 -5.140625 C 9.84375 -5.953125 9.703125 -6.65625 9.421875 -7.25 C 9.140625 -7.851562 8.75 -8.316406 8.25 -8.640625 C 7.75 -8.960938 7.179688 -9.125 6.546875 -9.125 C 5.972656 -9.125 5.4375 -9.003906 4.9375 -8.765625 C 4.4375 -8.535156 4 -8.21875 3.625 -7.8125 L 3.625 -2.4375 C 4 -2.039062 4.4375 -1.722656 4.9375 -1.484375 C 5.445312 -1.253906 5.988281 -1.140625 6.5625 -1.140625 Z M 6.5625 -1.140625 "/></g></g></g><g fill="#000000" fill-opacity="1"><g transform="translate(416.939248, 557.407504)"><g><path d="M 4.6875 0.3125 C 4.039062 0.3125 3.382812 0.222656 2.71875 0.046875 C 2.050781 -0.117188 1.550781 -0.320312 1.21875 -0.5625 C 0.9375 -0.757812 0.796875 -0.976562 0.796875 -1.21875 C 0.796875 -1.46875 0.96875 -1.800781 1.3125 -2.21875 C 1.738281 -1.875 2.253906 -1.59375 2.859375 -1.375 C 3.472656 -1.15625 4.09375 -1.046875 4.71875 -1.046875 C 5.625 -1.046875 6.3125 -1.203125 6.78125 -1.515625 C 7.25 -1.835938 7.484375 -2.300781 7.484375 -2.90625 C 7.484375 -3.238281 7.394531 -3.503906 7.21875 -3.703125 C 7.039062 -3.898438 6.757812 -4.0625 6.375 -4.1875 C 5.988281 -4.3125 5.4375 -4.4375 4.71875 -4.5625 C 3.90625 -4.695312 3.234375 -4.863281 2.703125 -5.0625 C 2.179688 -5.269531 1.773438 -5.570312 1.484375 -5.96875 C 1.191406 -6.375 1.046875 -6.910156 1.046875 -7.578125 C 1.046875 -8.203125 1.222656 -8.738281 1.578125 -9.1875 C 1.941406 -9.644531 2.429688 -9.988281 3.046875 -10.21875 C 3.671875 -10.457031 4.367188 -10.578125 5.140625 -10.578125 C 5.710938 -10.578125 6.28125 -10.503906 6.84375 -10.359375 C 7.414062 -10.222656 7.878906 -10.03125 8.234375 -9.78125 C 8.515625 -9.582031 8.65625 -9.375 8.65625 -9.15625 C 8.65625 -8.914062 8.5 -8.597656 8.1875 -8.203125 C 7.78125 -8.523438 7.289062 -8.773438 6.71875 -8.953125 C 6.144531 -9.128906 5.585938 -9.21875 5.046875 -9.21875 C 4.296875 -9.21875 3.695312 -9.078125 3.25 -8.796875 C 2.800781 -8.515625 2.578125 -8.113281 2.578125 -7.59375 C 2.578125 -7.238281 2.664062 -6.957031 2.84375 -6.75 C 3.03125 -6.539062 3.285156 -6.382812 3.609375 -6.28125 C 3.929688 -6.175781 4.367188 -6.082031 4.921875 -6 C 5.828125 -5.851562 6.566406 -5.679688 7.140625 -5.484375 C 7.722656 -5.285156 8.191406 -4.976562 8.546875 -4.5625 C 8.898438 -4.15625 9.078125 -3.601562 9.078125 -2.90625 C 9.078125 -2.238281 8.90625 -1.660156 8.5625 -1.171875 C 8.226562 -0.679688 7.726562 -0.3125 7.0625 -0.0625 C 6.40625 0.1875 5.613281 0.3125 4.6875 0.3125 Z M 4.6875 0.3125 "/></g></g></g></svg>